FFmpeg version SVN-r25716, Copyright (c) 2000-2010 the FFmpeg developers  built on Nov 10 2010 12:23:18 with gcc 4.1.2 20080704 (Red Hat 4.1.2-48)  configuration: --enable-libmp3lame --enable-shared --disable-mmx --arch=x86_64  libavutil     50.33. 0 / 50.33. 0  libavcore      0.12. 1 /  0.12. 1  libavcodec    52.94. 4 / 52.94. 4  libavformat   52.84. 0 / 52.84. 0  libavdevice   52. 2. 2 / 52. 2. 2  libavfilter    1.59. 0 /  1.59. 0  libswscale     0.12. 0 /  0.12. 0Seems stream 0 codec frame rate differs from container frame rate: 1200.00 (1200/1) -> 15.00 (15/1)Input #0, mov,mp4,m4a,3gp,3g2,mj2, from '/RAID10/data/converted_video_files/15791.mov':  Metadata:    major_brand     : qt      minor_version   : 537199360    compatible_brands: qt    Duration: 00:00:21.26, start: 0.000000, bitrate: 6252 kb/s    Stream #0.0(eng): Video: h264, yuv420p, 512x512, 6247 kb/s, 15 fps, 15 tbr, 600 tbn, 1200 tbc[buffer @ 0x15e2c9d0] w:512 h:512 pixfmt:yuv420pOutput #0, flv, to '/RAID10/data/converted_video_files/15791.flv':  Metadata:    encoder         : Lavf52.84.0    Stream #0.0(eng): Video: flv, yuv420p, 512x512, q=2-31, 600 kb/s, 1k tbn, 24 tbcStream mapping:  Stream #0.0 -> #0.0Press [q] to stop encodingframe=   20 fps=  0 q=18.7 size=     381kB time=1.29 bitrate=2419.4kbits/s    frame=   51 fps= 49 q=13.0 size=     457kB time=3.38 bitrate=1109.2kbits/s    frame=   82 fps= 52 q=11.6 size=     550kB time=5.46 bitrate= 824.8kbits/s    frame=  108 fps= 51 q=10.8 size=     641kB time=7.17 bitrate= 733.1kbits/s    frame=  130 fps= 50 q=11.1 size=     733kB time=8.62 bitrate= 695.8kbits/s    frame=  158 fps= 51 q=11.0 size=     859kB time=10.50 bitrate= 670.4kbits/s    frame=  185 fps= 51 q=11.2 size=     968kB time=12.29 bitrate= 645.4kbits/s    frame=  213 fps= 52 q=11.7 size=    1085kB time=14.17 bitrate= 627.6kbits/s    frame=  243 fps= 52 q=12.5 size=    1232kB time=16.17 bitrate= 624.2kbits/s    frame=  271 fps= 53 q=12.2 size=    1356kB time=18.04 bitrate= 615.8kbits/s    frame=  303 fps= 53 q=12.6 size=    1511kB time=20.17 bitrate= 614.0kbits/s    frame=  319 fps= 54 q=12.4 Lsize=    1581kB time=21.25 bitrate= 609.5kbits/s    video:1576kB audio:0kB global headers:0kB muxing overhead 0.329311%